<svg  version="1.2" xmlns="http://www.w3.org/2000/svg" viewBox="0 0 100 100" width="100" height="100"><style>.a{opacity:.8}</style><path  class="a" d="m50 100c-27.6 0-50-22.4-50-50 0-27.6 22.4-50 50-50 27.6 0 50 22.4 50 50 0 27.6-22.4 50-50 50zm0-98.3c-26.6 0-48.3 21.7-48.3 48.3 0 26.6 21.7 48.3 48.3 48.3 26.6 0 48.3-21.7 48.3-48.3 0-26.6-21.7-48.3-48.3-48.3zm7.6 48.3l14.5 25.1h-44.2l14.5-25.1-14.5-25.1h44.2zm-7.6-13.2l-17.6-10.1h35.1zm-0.8 21.7l-4.9-8.5 4.9-8.4zm0.8 4.8l17.5 10.1h-35zm0.8-21.7l4.9 8.4-4.9 8.5zm0-3.3v-0.1l17.5-10.1-11.7 20.3zm-19.2-10.2l17.6 10.2-5.9 10.1zm17.6 33.8l-17.6 10.1 11.7-20.3zm19.3 10.2l-17.6-10.2 5.9-10.1z"/></svg>